<svg xmlns="http://www.w3.org/2000/svg" xmlns:xlink="http://www.w3.org/1999/xlink" width="31" height="31" viewBox="0 0 31 31"><defs><path id="jfkaa" d="M190.42 186.15l6.12-6.13-4.37-2.52a1.03 1.03 0 0 1 .14-1.85l19.48-7.78a1.03 1.03 0 0 1 1.33 1.34l-7.77 19.5a1.03 1.03 0 0 1-1.84.13l-2.53-4.37-6.12 6.12a1.03 1.03 0 0 1-1.45 0l-3-2.99c-.4-.4-.4-1.05 0-1.45zm3.71 2.26l6.35-6.35a1.04 1.04 0 0 1 .86-.3c.32.05.6.24.75.51l2.14 3.7 6.1-15.3-15.3 6.1 3.7 2.14a1.03 1.03 0 0 1 .21 1.62l-6.34 6.35zm22.24-25.24a1.03 1.03 0 0 1 1.45 1.46l-2.28 2.29a1.03 1.03 0 1 1-1.46-1.46zm-.78 7.12c0-.57.46-1.03 1.03-1.03h3.23a1.03 1.03 0 1 1 0 2.06h-3.23c-.57 0-1.03-.46-1.03-1.03zm.42 3.18l2.29 2.29a1.03 1.03 0 1 1-1.46 1.45l-2.29-2.29a1.03 1.03 0 0 1 1.46-1.45zm-5.3-8.07c-.57 0-1.03-.46-1.03-1.03v-3.23a1.03 1.03 0 1 1 2.06 0v3.23c0 .57-.46 1.03-1.03 1.03zm-3.9 1.34c-.27 0-.53-.1-.73-.3l-2.29-2.29a1.03 1.03 0 1 1 1.46-1.45l2.28 2.28a1.03 1.03 0 0 1-.72 1.76z"/></defs><g><g opacity=".25" transform="translate(-190 -160)"><use fill="#fff" xlink:href="#jfkaa"/></g></g></svg>