<svg xmlns="http://www.w3.org/2000/svg" xmlns:xlink="http://www.w3.org/1999/xlink" width="27" height="27" viewBox="0 0 27 27"><defs><path id="ls6fa" d="M188.4 284.75a1 1 0 0 1 0-1.4l5.92-5.93a1 1 0 0 1 1.4 0l15.9 15.89a.99.99 0 0 1 .27.43l3 8.98a1 1 0 0 1-.95 1.31H198a1 1 0 1 1 0-1.99h10l-3.3-1.13a1 1 0 0 1-.4-.26zm2.1-.7l14.52 14.51 4.52-4.52-14.51-14.5zm21.86 17.4l-1.85-5.57-3.66 3.66z"/></defs><g><g opacity=".25" transform="translate(-188 -277)"><use fill="#fda34a" xlink:href="#ls6fa"/></g></g></svg>