<svg xmlns="http://www.w3.org/2000/svg" xmlns:xlink="http://www.w3.org/1999/xlink" width="15" height="12" viewBox="0 0 15 12"><defs><path id="2bcra" d="M733.78 7281.98c0-1.8-1.58-2.37-1.58-2.37.13-3.12 2.94-5.4 2.94-5.4 0-.27-1.01-.84-1.27-.84-.14 0-5.63 3.12-5.63 8.04 0 2.2 1.14 3.2 2.72 3.2 1.72 0 2.82-1.13 2.82-2.63zm7.25 0c0-1.8-1.63-2.37-1.63-2.37.18-3.12 2.95-5.4 2.95-5.4 0-.27-.97-.84-1.28-.84-.09 0-5.62 3.12-5.62 8.04 0 2.2 1.18 3.2 2.77 3.2 1.7 0 2.8-1.13 2.8-2.63z"/></defs><g><g transform="translate(-728 -7273)"><use fill="#fff" xlink:href="#2bcra"/></g></g></svg>